<svg width="277" height="162" viewBox="0 0 277 162" fill="none" xmlns="http://www.w3.org/2000/svg">
<path d="M100.407 1H53L85.5926 161H133L100.407 1Z" fill="#849FFF"/>
<path d="M252.5 81.4958L276.921 0.566876L130.196 0.584855L126.693 24.2939L235.507 24.2806L218 81.5L229.5 81.4986L252.5 81.4958Z" fill="#0148FF"/>
<path d="M246.651 102.499L266.162 160.969L119.046 161.024L115.545 138.102L224.649 138.061L212.56 102.499L246.651 102.499Z" fill="#849FFF"/>
<path d="M30.1481 1H74L43.8519 161H0L30.1481 1Z" fill="#0148FF"/>
<path d="M246.5 102.5L253.5 78L15 82L10.4999 106L246.5 102.5Z" fill="#849FFF"/>
<path d="M128.926 1H171L142.074 161H100L128.926 1Z" fill="#0148FF"/>
</svg>
