<svg width="500" height="369" viewBox="0 0 500 369" fill="none" xmlns="http://www.w3.org/2000/svg">
<rect width="500" height="369" fill="white"/>
<path d="M28.5625 145H37.2812V207.156L36.5312 217H28.5625V145ZM71.5469 191.219V192.203C71.5469 195.891 71.1094 199.312 70.2344 202.469C69.3594 205.594 68.0781 208.312 66.3906 210.625C64.7031 212.938 62.6406 214.734 60.2031 216.016C57.7656 217.297 54.9688 217.938 51.8125 217.938C48.5938 217.938 45.7656 217.391 43.3281 216.297C40.9219 215.172 38.8906 213.562 37.2344 211.469C35.5781 209.375 34.25 206.844 33.25 203.875C32.2812 200.906 31.6094 197.562 31.2344 193.844V189.531C31.6094 185.781 32.2812 182.422 33.25 179.453C34.25 176.484 35.5781 173.953 37.2344 171.859C38.8906 169.734 40.9219 168.125 43.3281 167.031C45.7344 165.906 48.5312 165.344 51.7188 165.344C54.9062 165.344 57.7344 165.969 60.2031 167.219C62.6719 168.438 64.7344 170.188 66.3906 172.469C68.0781 174.75 69.3594 177.484 70.2344 180.672C71.1094 183.828 71.5469 187.344 71.5469 191.219ZM62.8281 192.203V191.219C62.8281 188.688 62.5938 186.312 62.125 184.094C61.6562 181.844 60.9062 179.875 59.875 178.188C58.8438 176.469 57.4844 175.125 55.7969 174.156C54.1094 173.156 52.0312 172.656 49.5625 172.656C47.375 172.656 45.4688 173.031 43.8438 173.781C42.25 174.531 40.8906 175.547 39.7656 176.828C38.6406 178.078 37.7188 179.516 37 181.141C36.3125 182.734 35.7969 184.391 35.4531 186.109V197.406C35.9531 199.594 36.7656 201.703 37.8906 203.734C39.0469 205.734 40.5781 207.375 42.4844 208.656C44.4219 209.938 46.8125 210.578 49.6562 210.578C52 210.578 54 210.109 55.6562 209.172C57.3438 208.203 58.7031 206.875 59.7344 205.188C60.7969 203.5 61.5781 201.547 62.0781 199.328C62.5781 197.109 62.8281 194.734 62.8281 192.203ZM112.422 208.328V182.219C112.422 180.219 112.016 178.484 111.203 177.016C110.422 175.516 109.234 174.359 107.641 173.547C106.047 172.734 104.078 172.328 101.734 172.328C99.5469 172.328 97.625 172.703 95.9688 173.453C94.3438 174.203 93.0625 175.188 92.125 176.406C91.2188 177.625 90.7656 178.938 90.7656 180.344H82.0938C82.0938 178.531 82.5625 176.734 83.5 174.953C84.4375 173.172 85.7812 171.562 87.5312 170.125C89.3125 168.656 91.4375 167.5 93.9062 166.656C96.4062 165.781 99.1875 165.344 102.25 165.344C105.938 165.344 109.188 165.969 112 167.219C114.844 168.469 117.062 170.359 118.656 172.891C120.281 175.391 121.094 178.531 121.094 182.312V205.938C121.094 207.625 121.234 209.422 121.516 211.328C121.828 213.234 122.281 214.875 122.875 216.25V217H113.828C113.391 216 113.047 214.672 112.797 213.016C112.547 211.328 112.422 209.766 112.422 208.328ZM113.922 186.25L114.016 192.344H105.25C102.781 192.344 100.578 192.547 98.6406 192.953C96.7031 193.328 95.0781 193.906 93.7656 194.688C92.4531 195.469 91.4531 196.453 90.7656 197.641C90.0781 198.797 89.7344 200.156 89.7344 201.719C89.7344 203.312 90.0938 204.766 90.8125 206.078C91.5312 207.391 92.6094 208.438 94.0469 209.219C95.5156 209.969 97.3125 210.344 99.4375 210.344C102.094 210.344 104.438 209.781 106.469 208.656C108.5 207.531 110.109 206.156 111.297 204.531C112.516 202.906 113.172 201.328 113.266 199.797L116.969 203.969C116.75 205.281 116.156 206.734 115.188 208.328C114.219 209.922 112.922 211.453 111.297 212.922C109.703 214.359 107.797 215.562 105.578 216.531C103.391 217.469 100.922 217.938 98.1719 217.938C94.7344 217.938 91.7188 217.266 89.125 215.922C86.5625 214.578 84.5625 212.781 83.125 210.531C81.7188 208.25 81.0156 205.703 81.0156 202.891C81.0156 200.172 81.5469 197.781 82.6094 195.719C83.6719 193.625 85.2031 191.891 87.2031 190.516C89.2031 189.109 91.6094 188.047 94.4219 187.328C97.2344 186.609 100.375 186.25 103.844 186.25H113.922ZM172.516 209.875V217H135.625V209.875H172.516ZM171.156 172.422L137.594 217H132.297V210.625L165.625 166.281H171.156V172.422ZM167.312 166.281V173.453H132.672V166.281H167.312ZM212.266 208.328V182.219C212.266 180.219 211.859 178.484 211.047 177.016C210.266 175.516 209.078 174.359 207.484 173.547C205.891 172.734 203.922 172.328 201.578 172.328C199.391 172.328 197.469 172.703 195.812 173.453C194.188 174.203 192.906 175.188 191.969 176.406C191.062 177.625 190.609 178.938 190.609 180.344H181.938C181.938 178.531 182.406 176.734 183.344 174.953C184.281 173.172 185.625 171.562 187.375 170.125C189.156 168.656 191.281 167.5 193.75 166.656C196.25 165.781 199.031 165.344 202.094 165.344C205.781 165.344 209.031 165.969 211.844 167.219C214.688 168.469 216.906 170.359 218.5 172.891C220.125 175.391 220.938 178.531 220.938 182.312V205.938C220.938 207.625 221.078 209.422 221.359 211.328C221.672 213.234 222.125 214.875 222.719 216.25V217H213.672C213.234 216 212.891 214.672 212.641 213.016C212.391 211.328 212.266 209.766 212.266 208.328ZM213.766 186.25L213.859 192.344H205.094C202.625 192.344 200.422 192.547 198.484 192.953C196.547 193.328 194.922 193.906 193.609 194.688C192.297 195.469 191.297 196.453 190.609 197.641C189.922 198.797 189.578 200.156 189.578 201.719C189.578 203.312 189.938 204.766 190.656 206.078C191.375 207.391 192.453 208.438 193.891 209.219C195.359 209.969 197.156 210.344 199.281 210.344C201.938 210.344 204.281 209.781 206.312 208.656C208.344 207.531 209.953 206.156 211.141 204.531C212.359 202.906 213.016 201.328 213.109 199.797L216.812 203.969C216.594 205.281 216 206.734 215.031 208.328C214.062 209.922 212.766 211.453 211.141 212.922C209.547 214.359 207.641 215.562 205.422 216.531C203.234 217.469 200.766 217.938 198.016 217.938C194.578 217.938 191.562 217.266 188.969 215.922C186.406 214.578 184.406 212.781 182.969 210.531C181.562 208.25 180.859 205.703 180.859 202.891C180.859 200.172 181.391 197.781 182.453 195.719C183.516 193.625 185.047 191.891 187.047 190.516C189.047 189.109 191.453 188.047 194.266 187.328C197.078 186.609 200.219 186.25 203.688 186.25H213.766ZM243.25 174.25V217H234.578V166.281H243.016L243.25 174.25ZM259.094 166L259.047 174.062C258.328 173.906 257.641 173.812 256.984 173.781C256.359 173.719 255.641 173.688 254.828 173.688C252.828 173.688 251.062 174 249.531 174.625C248 175.25 246.703 176.125 245.641 177.25C244.578 178.375 243.734 179.719 243.109 181.281C242.516 182.812 242.125 184.5 241.938 186.344L239.5 187.75C239.5 184.688 239.797 181.812 240.391 179.125C241.016 176.438 241.969 174.062 243.25 172C244.531 169.906 246.156 168.281 248.125 167.125C250.125 165.938 252.5 165.344 255.25 165.344C255.875 165.344 256.594 165.422 257.406 165.578C258.219 165.703 258.781 165.844 259.094 166ZM275.828 145V217H267.109V145H275.828ZM306.812 166.281L284.688 189.953L272.312 202.797L271.609 193.562L280.469 182.969L296.219 166.281H306.812ZM298.891 217L280.797 192.812L285.297 185.078L309.109 217H298.891Z" fill="black"/>
<path d="M346.797 205.281V166.281H355.516V217H347.219L346.797 205.281ZM348.438 194.594L352.047 194.5C352.047 197.875 351.688 201 350.969 203.875C350.281 206.719 349.156 209.188 347.594 211.281C346.031 213.375 343.984 215.016 341.453 216.203C338.922 217.359 335.844 217.938 332.219 217.938C329.75 217.938 327.484 217.578 325.422 216.859C323.391 216.141 321.641 215.031 320.172 213.531C318.703 212.031 317.562 210.078 316.75 207.672C315.969 205.266 315.578 202.375 315.578 199V166.281H324.25V199.094C324.25 201.375 324.5 203.266 325 204.766C325.531 206.234 326.234 207.406 327.109 208.281C328.016 209.125 329.016 209.719 330.109 210.062C331.234 210.406 332.391 210.578 333.578 210.578C337.266 210.578 340.188 209.875 342.344 208.469C344.5 207.031 346.047 205.109 346.984 202.703C347.953 200.266 348.438 197.562 348.438 194.594ZM398.641 208.328V182.219C398.641 180.219 398.234 178.484 397.422 177.016C396.641 175.516 395.453 174.359 393.859 173.547C392.266 172.734 390.297 172.328 387.953 172.328C385.766 172.328 383.844 172.703 382.188 173.453C380.562 174.203 379.281 175.188 378.344 176.406C377.438 177.625 376.984 178.938 376.984 180.344H368.312C368.312 178.531 368.781 176.734 369.719 174.953C370.656 173.172 372 171.562 373.75 170.125C375.531 168.656 377.656 167.5 380.125 166.656C382.625 165.781 385.406 165.344 388.469 165.344C392.156 165.344 395.406 165.969 398.219 167.219C401.062 168.469 403.281 170.359 404.875 172.891C406.5 175.391 407.312 178.531 407.312 182.312V205.938C407.312 207.625 407.453 209.422 407.734 211.328C408.047 213.234 408.5 214.875 409.094 216.25V217H400.047C399.609 216 399.266 214.672 399.016 213.016C398.766 211.328 398.641 209.766 398.641 208.328ZM400.141 186.25L400.234 192.344H391.469C389 192.344 386.797 192.547 384.859 192.953C382.922 193.328 381.297 193.906 379.984 194.688C378.672 195.469 377.672 196.453 376.984 197.641C376.297 198.797 375.953 200.156 375.953 201.719C375.953 203.312 376.312 204.766 377.031 206.078C377.75 207.391 378.828 208.438 380.266 209.219C381.734 209.969 383.531 210.344 385.656 210.344C388.312 210.344 390.656 209.781 392.688 208.656C394.719 207.531 396.328 206.156 397.516 204.531C398.734 202.906 399.391 201.328 399.484 199.797L403.188 203.969C402.969 205.281 402.375 206.734 401.406 208.328C400.438 209.922 399.141 211.453 397.516 212.922C395.922 214.359 394.016 215.562 391.797 216.531C389.609 217.469 387.141 217.938 384.391 217.938C380.953 217.938 377.938 217.266 375.344 215.922C372.781 214.578 370.781 212.781 369.344 210.531C367.938 208.25 367.234 205.703 367.234 202.891C367.234 200.172 367.766 197.781 368.828 195.719C369.891 193.625 371.422 191.891 373.422 190.516C375.422 189.109 377.828 188.047 380.641 187.328C383.453 186.609 386.594 186.25 390.062 186.25H400.141ZM457.516 217V224.125H414.531V217H457.516Z" fill="#0500FF"/>
</svg>
